{
  "accessors": [
    {
      "bufferView": 2,
      "componentType": 5126,
      "count": 1618,
      "max": [
        2.0926060676574707,
        2.0926051139831543,
        16.884288787841797
      ],
      "min": [
        -2.0926051139831543,
        -2.0926051139831543,
        1.0706169605255127
      ],
      "type": "VEC3"
    },
    {
      "bufferView": 2,
      "byteOffset": 19416,
      "componentType": 5126,
      "count": 1618,
      "max": [
        1,
        1,
        0.99505746364593506
      ],
      "min": [
        -1,
        -1,
        -1
      ],
      "type": "VEC3"
    },
    {
      "bufferView": 1,
      "componentType": 5126,
      "count": 1618,
      "max": [
        0.65625,
        1
      ],
      "min": [
        0.34375,
        0
      ],
      "type": "VEC2"
    },
    {
      "bufferView": 0,
      "componentType": 5125,
      "count": 9024,
      "max": [
        1617
      ],
      "min": [
        0
      ],
      "type": "SCALAR"
    }
  ],
  "asset": {
    "extras": {
      "author": "Marcela G. Cardoso (https://sketchfab.com/marcelitchas)",
      "license": "CC-BY-4.0 (http://creativecommons.org/licenses/by/4.0/)",
      "source": "https://sketchfab.com/3d-models/garrafa-de-vinho-e560092fc7cd4461a15ba5aa2d84a1be",
      "title": "Garrafa de vinho"
    },
    "generator": "Sketchfab-8.23.0",
    "version": "2.0"
  },
  "bufferViews": [
    {
      "buffer": 0,
      "byteLength": 36096,
      "byteOffset": 0,
      "name": "floatBufferViews",
      "target": 34963
    },
    {
      "buffer": 0,
      "byteLength": 12944,
      "byteOffset": 36096,
      "byteStride": 8,
      "name": "floatBufferViews",
      "target": 34962
    },
    {
      "buffer": 0,
      "byteLength": 38832,
      "byteOffset": 49040,
      "byteStride": 12,
      "name": "floatBufferViews",
      "target": 34962
    }
  ],
  "buffers": [
    {
      "byteLength": 87872,
      "uri": "scene.bin"
    }
  ],
  "materials": [
    {
      "alphaMode": "BLEND",
      "doubleSided": true,
      "name": "initialShadingGroup",
      "pbrMetallicRoughness": {
        "baseColorFactor": [
          0.011326568893273124,
          0.051766289830066425,
          0.0029368000626517348,
          0.69999999999999996
        ],
        "metallicFactor": 0,
        "roughnessFactor": 0.29999999999999999
      }
    }
  ],
  "meshes": [
    {
      "primitives": [
        {
          "attributes": {
            "NORMAL": 1,
            "POSITION": 0,
            "TEXCOORD_0": 2
          },
          "indices": 3,
          "material": 0,
          "mode": 4
        }
      ]
    }
  ],
  "nodes": [
    {
      "children": [
        1
      ],
      "name": "RootNode (gltf orientation matrix)",
      "rotation": [
        -0.70710678118654746,
        -0,
        -0,
        0.70710678118654757
      ]
    },
    {
      "children": [
        2
      ],
      "matrix": [
        1,
        1.6081226229577292e-16,
        -1.6081226229577292e-16,
        0,
        -1.6081226229577292e-16,
        1,
        1.6081226229577292e-16,
        0,
        1.6081226229577292e-16,
        -1.6081226229577292e-16,
        1,
        0,
        -1.4436850728825976e-15,
        1.4436850728825976e-15,
        0,
        1
      ],
      "name": "RootNode (model correction matrix)"
    },
    {
      "children": [
        3
      ],
      "name": "827f5ce8705d4173985f1ac0b884a200.obj.cleaner.materialmerger.gles"
    },
    {
      "mesh": 0,
      "name": ""
    }
  ],
  "scene": 0,
  "scenes": [
    {
      "name": "OSG_Scene",
      "nodes": [
        0
      ]
    }
  ]
}

