{
  "accessors": [
    {
      "bufferView": 1,
      "componentType": 5126,
      "count": 310,
      "max": [
        4.9235801696777344,
        6.4485602378845215,
        2.9000999927520752
      ],
      "min": [
        -5.5752301216125488,
        -5.2964601516723633,
        0.0073199998587369919
      ],
      "type": "VEC3"
    },
    {
      "bufferView": 1,
      "byteOffset": 3720,
      "componentType": 5126,
      "count": 310,
      "max": [
        0.99974691867828369,
        0.93984454870223999,
        0.9999886155128479
      ],
      "min": [
        -0.99766665697097778,
        -0.99975007772445679,
        -1
      ],
      "type": "VEC3"
    },
    {
      "bufferView": 0,
      "componentType": 5125,
      "count": 864,
      "max": [
        309
      ],
      "min": [
        0
      ],
      "type": "SCALAR"
    },
    {
      "bufferView": 1,
      "byteOffset": 7440,
      "componentType": 5126,
      "count": 1440,
      "max": [
        9.1869096755981445,
        7.0128698348999023,
        3.4441299438476562
      ],
      "min": [
        -10.13578987121582,
        -8.7278604507446289,
        1.1364200115203857
      ],
      "type": "VEC3"
    },
    {
      "bufferView": 1,
      "byteOffset": 24720,
      "componentType": 5126,
      "count": 1440,
      "max": [
        0.98312777280807495,
        0.98260092735290527,
        0.99987536668777466
      ],
      "min": [
        -0.96832406520843506,
        -0.90592110157012939,
        -0.9996485710144043
      ],
      "type": "VEC3"
    },
    {
      "bufferView": 0,
      "byteOffset": 3456,
      "componentType": 5125,
      "count": 1440,
      "max": [
        1439
      ],
      "min": [
        0
      ],
      "type": "SCALAR"
    }
  ],
  "asset": {
    "extras": {
      "author": "wingedrobin (https://sketchfab.com/wingedrobin)",
      "license": "CC-BY-4.0 (http://creativecommons.org/licenses/by/4.0/)",
      "source": "https://sketchfab.com/models/c94990e230f342af94f5425c262b0090",
      "title": "Low_Poly_Tree_02"
    },
    "generator": "Sketchfab-3.18.7",
    "version": "2.0"
  },
  "bufferViews": [
    {
      "buffer": 0,
      "byteLength": 9216,
      "byteOffset": 0,
      "name": "floatBufferViews",
      "target": 34963
    },
    {
      "buffer": 0,
      "byteLength": 42000,
      "byteOffset": 9216,
      "byteStride": 12,
      "name": "floatBufferViews",
      "target": 34962
    }
  ],
  "buffers": [
    {
      "byteLength": 51216,
      "uri": "scene.bin"
    }
  ],
  "materials": [
    {
      "doubleSided": true,
      "emissiveFactor": [
        0,
        0,
        0
      ],
      "name": "Bark",
      "pbrMetallicRoughness": {
        "baseColorFactor": [
          0.1192759052,
          0.023340903199999999,
          0.0020168305,
          1
        ],
        "metallicFactor": 0,
        "roughnessFactor": 0.59999999999999998
      }
    },
    {
      "doubleSided": true,
      "emissiveFactor": [
        0,
        0,
        0
      ],
      "name": "Leaves",
      "pbrMetallicRoughness": {
        "baseColorFactor": [
          0.0238685571,
          0.24619434770000001,
          0.0027008512999999999,
          1
        ],
        "metallicFactor": 0,
        "roughnessFactor": 0.59999999999999998
      }
    }
  ],
  "meshes": [
    {
      "name": "Cylinder_0",
      "primitives": [
        {
          "attributes": {
            "NORMAL": 1,
            "POSITION": 0
          },
          "indices": 2,
          "material": 0,
          "mode": 4
        }
      ]
    },
    {
      "name": "Cylinder_1",
      "primitives": [
        {
          "attributes": {
            "NORMAL": 4,
            "POSITION": 3
          },
          "indices": 5,
          "material": 1,
          "mode": 4
        }
      ]
    }
  ],
  "nodes": [
    {
      "children": [
        1
      ],
      "name": "RootNode (gltf orientation matrix)",
      "rotation": [
        -0.70710678118654746,
        -0,
        -0,
        0.70710678118654757
      ]
    },
    {
      "children": [
        2
      ],
      "name": "RootNode (model correction matrix)"
    },
    {
      "children": [
        3,
        5
      ],
      "name": "Root"
    },
    {
      "children": [
        4
      ],
      "matrix": [
        0.62132000000000009,
        0.69962000000000024,
        -0.35283000000000003,
        0,
        -0.28481000000000006,
        0.62115000000000009,
        0.73011000000000004,
        0,
        0.72996000000000005,
        -0.35314000000000001,
        0.5851900000000001,
        0,
        5.2488200000000003,
        -2.0668399999999996,
        8.8285699999999991,
        1
      ],
      "name": "Lamp"
    },
    {
      "name": "Lamp"
    },
    {
      "children": [
        6,
        7
      ],
      "matrix": [
        0.43069000000000002,
        0,
        0,
        0,
        0,
        0.43069000000000002,
        0,
        0,
        0,
        0,
        2.8442499999999997,
        0,
        0,
        0,
        -0,
        1
      ],
      "name": "Cylinder"
    },
    {
      "mesh": 0,
      "name": "Cylinder_0"
    },
    {
      "mesh": 1,
      "name": "Cylinder_1"
    }
  ],
  "scene": 0,
  "scenes": [
    {
      "name": "OSG_Scene",
      "nodes": [
        0
      ]
    }
  ]
}

