{
  "accessors": [
    {
      "bufferView": 2,
      "componentType": 5126,
      "count": 559,
      "max": [
        1,
        25.721210479736328,
        1
      ],
      "min": [
        -1,
        -36.046119689941406,
        -1
      ],
      "type": "VEC3"
    },
    {
      "bufferView": 2,
      "byteOffset": 6708,
      "componentType": 5126,
      "count": 559,
      "max": [
        1,
        1,
        1
      ],
      "min": [
        -1,
        -1,
        -1
      ],
      "type": "VEC3"
    },
    {
      "bufferView": 1,
      "componentType": 5126,
      "count": 559,
      "max": [
        1,
        1
      ],
      "min": [
        0,
        0
      ],
      "type": "VEC2"
    },
    {
      "bufferView": 0,
      "componentType": 5125,
      "count": 2880,
      "max": [
        558
      ],
      "min": [
        0
      ],
      "type": "SCALAR"
    },
    {
      "bufferView": 2,
      "byteOffset": 13416,
      "componentType": 5126,
      "count": 163,
      "max": [
        1.9092708826065063,
        27.4044189453125,
        1.9092711210250854
      ],
      "min": [
        -1.9092711210250854,
        25.485561370849609,
        -1.9092717170715332
      ],
      "type": "VEC3"
    },
    {
      "bufferView": 2,
      "byteOffset": 15372,
      "componentType": 5126,
      "count": 163,
      "max": [
        0.76718533039093018,
        1,
        0.7671852707862854
      ],
      "min": [
        -0.7671852707862854,
        -1,
        -0.76718515157699585
      ],
      "type": "VEC3"
    },
    {
      "bufferView": 1,
      "byteOffset": 4472,
      "componentType": 5126,
      "count": 163,
      "max": [
        1,
        1
      ],
      "min": [
        0,
        0
      ],
      "type": "VEC2"
    },
    {
      "bufferView": 0,
      "byteOffset": 11520,
      "componentType": 5125,
      "count": 384,
      "max": [
        162
      ],
      "min": [
        0
      ],
      "type": "SCALAR"
    },
    {
      "bufferView": 2,
      "byteOffset": 17328,
      "componentType": 5126,
      "count": 163,
      "max": [
        1.604212760925293,
        13.75225830078125,
        1.6042125225067139
      ],
      "min": [
        -1.604212760925293,
        12.578582763671875,
        -1.6042135953903198
      ],
      "type": "VEC3"
    },
    {
      "bufferView": 2,
      "byteOffset": 19284,
      "componentType": 5126,
      "count": 163,
      "max": [
        0.59046453237533569,
        1,
        0.59046465158462524
      ],
      "min": [
        -0.59046453237533569,
        -1,
        -0.59046435356140137
      ],
      "type": "VEC3"
    },
    {
      "bufferView": 1,
      "byteOffset": 5776,
      "componentType": 5126,
      "count": 163,
      "max": [
        1,
        1
      ],
      "min": [
        0,
        0
      ],
      "type": "VEC2"
    },
    {
      "bufferView": 0,
      "byteOffset": 13056,
      "componentType": 5125,
      "count": 384,
      "max": [
        162
      ],
      "min": [
        0
      ],
      "type": "SCALAR"
    },
    {
      "bufferView": 2,
      "byteOffset": 21240,
      "componentType": 5126,
      "count": 163,
      "max": [
        1.3124699592590332,
        13.632367134094238,
        1.3124690055847168
      ],
      "min": [
        -1.3124686479568481,
        12.67213249206543,
        -1.3124690055847168
      ],
      "type": "VEC3"
    },
    {
      "bufferView": 2,
      "byteOffset": 23196,
      "componentType": 5126,
      "count": 163,
      "max": [
        0.59046626091003418,
        1,
        0.59046649932861328
      ],
      "min": [
        -0.59046667814254761,
        -1,
        -0.59046649932861328
      ],
      "type": "VEC3"
    },
    {
      "bufferView": 1,
      "byteOffset": 7080,
      "componentType": 5126,
      "count": 163,
      "max": [
        1,
        1
      ],
      "min": [
        0,
        0
      ],
      "type": "VEC2"
    },
    {
      "bufferView": 0,
      "byteOffset": 14592,
      "componentType": 5125,
      "count": 384,
      "max": [
        162
      ],
      "min": [
        0
      ],
      "type": "SCALAR"
    },
    {
      "bufferView": 2,
      "byteOffset": 25152,
      "componentType": 5126,
      "count": 559,
      "max": [
        47.969211578369141,
        27.091392517089844,
        47.969211578369141
      ],
      "min": [
        -47.969211578369141,
        10.669744491577148,
        -47.969211578369141
      ],
      "type": "VEC3"
    },
    {
      "bufferView": 2,
      "byteOffset": 31860,
      "componentType": 5126,
      "count": 559,
      "max": [
        0.79990243911743164,
        1,
        0.79990243911743164
      ],
      "min": [
        -0.79990243911743164,
        -1,
        -0.79990243911743164
      ],
      "type": "VEC3"
    },
    {
      "bufferView": 1,
      "byteOffset": 8384,
      "componentType": 5126,
      "count": 559,
      "max": [
        1,
        1
      ],
      "min": [
        0,
        0
      ],
      "type": "VEC2"
    },
    {
      "bufferView": 0,
      "byteOffset": 16128,
      "componentType": 5125,
      "count": 2880,
      "max": [
        558
      ],
      "min": [
        0
      ],
      "type": "SCALAR"
    },
    {
      "bufferView": 2,
      "byteOffset": 38568,
      "componentType": 5126,
      "count": 128,
      "max": [
        47.798606872558594,
        26.877708435058594,
        47.773506164550781
      ],
      "min": [
        -47.764129638671875,
        9.9706134796142578,
        -47.765213012695312
      ],
      "type": "VEC3"
    },
    {
      "bufferView": 2,
      "byteOffset": 40104,
      "componentType": 5126,
      "count": 128,
      "max": [
        0.89718520641326904,
        0.71357095241546631,
        0.92133891582489014
      ],
      "min": [
        -0.89832609891891479,
        -0.71667385101318359,
        -0.91994130611419678
      ],
      "type": "VEC3"
    },
    {
      "bufferView": 1,
      "byteOffset": 12856,
      "componentType": 5126,
      "count": 128,
      "max": [
        0,
        0
      ],
      "min": [
        0,
        0
      ],
      "type": "VEC2"
    },
    {
      "bufferView": 0,
      "byteOffset": 27648,
      "componentType": 5125,
      "count": 576,
      "max": [
        127
      ],
      "min": [
        0
      ],
      "type": "SCALAR"
    },
    {
      "bufferView": 2,
      "byteOffset": 41640,
      "componentType": 5126,
      "count": 128,
      "max": [
        12.819720268249512,
        22.5115966796875,
        12.821565628051758
      ],
      "min": [
        -12.806858062744141,
        13.213320732116699,
        -12.809149742126465
      ],
      "type": "VEC3"
    },
    {
      "bufferView": 2,
      "byteOffset": 43176,
      "componentType": 5126,
      "count": 128,
      "max": [
        0.94224339723587036,
        0.79036056995391846,
        0.94796139001846313
      ],
      "min": [
        -0.94321674108505249,
        -0.78741896152496338,
        -0.94695866107940674
      ],
      "type": "VEC3"
    },
    {
      "bufferView": 1,
      "byteOffset": 13880,
      "componentType": 5126,
      "count": 128,
      "max": [
        0,
        0
      ],
      "min": [
        0,
        0
      ],
      "type": "VEC2"
    },
    {
      "bufferView": 0,
      "byteOffset": 29952,
      "componentType": 5125,
      "count": 576,
      "max": [
        127
      ],
      "min": [
        0
      ],
      "type": "SCALAR"
    },
    {
      "bufferView": 2,
      "byteOffset": 44712,
      "componentType": 5126,
      "count": 482,
      "max": [
        1.3667237758636475,
        -29.419239044189453,
        1.3667237758636475
      ],
      "min": [
        -1.3667237758636475,
        -43.605236053466797,
        -1.3667237758636475
      ],
      "type": "VEC3"
    },
    {
      "bufferView": 2,
      "byteOffset": 50496,
      "componentType": 5126,
      "count": 482,
      "max": [
        1,
        1,
        1
      ],
      "min": [
        -1,
        -1,
        -1
      ],
      "type": "VEC3"
    },
    {
      "bufferView": 0,
      "byteOffset": 32256,
      "componentType": 5125,
      "count": 2880,
      "max": [
        481
      ],
      "min": [
        0
      ],
      "type": "SCALAR"
    }
  ],
  "asset": {
    "extras": {
      "author": "cariaga.info (https://sketchfab.com/cariaga.info)",
      "license": "CC-BY-4.0 (http://creativecommons.org/licenses/by/4.0/)",
      "source": "https://sketchfab.com/3d-models/umbrella-japanese-parasol-7bdbfbab23f24e048b2ddd8e9d33438b",
      "title": "Umbrella Japanese Parasol"
    },
    "generator": "Sketchfab-7.95.0",
    "version": "2.0"
  },
  "bufferViews": [
    {
      "buffer": 0,
      "byteLength": 43776,
      "byteOffset": 0,
      "name": "floatBufferViews",
      "target": 34963
    },
    {
      "buffer": 0,
      "byteLength": 14904,
      "byteOffset": 43776,
      "byteStride": 8,
      "name": "floatBufferViews",
      "target": 34962
    },
    {
      "buffer": 0,
      "byteLength": 56280,
      "byteOffset": 58680,
      "byteStride": 12,
      "name": "floatBufferViews",
      "target": 34962
    }
  ],
  "buffers": [
    {
      "byteLength": 114960,
      "uri": "scene.bin"
    }
  ],
  "materials": [
    {
      "doubleSided": true,
      "emissiveFactor": [
        0,
        0,
        0
      ],
      "name": "asian_umbrella",
      "pbrMetallicRoughness": {
        "baseColorFactor": [
          0.5,
          0.5,
          0.5,
          1
        ],
        "metallicFactor": 0,
        "roughnessFactor": 1
      }
    },
    {
      "doubleSided": true,
      "emissiveFactor": [
        0,
        0,
        0
      ],
      "name": "asian_umbrella1",
      "pbrMetallicRoughness": {
        "baseColorFactor": [
          0.5,
          0.5,
          0.5,
          1
        ],
        "metallicFactor": 0,
        "roughnessFactor": 1
      }
    },
    {
      "doubleSided": true,
      "emissiveFactor": [
        0,
        0,
        0
      ],
      "name": "asian_umbrella2",
      "pbrMetallicRoughness": {
        "baseColorFactor": [
          0.5,
          0.5,
          0.5,
          1
        ],
        "metallicFactor": 0,
        "roughnessFactor": 1
      }
    },
    {
      "doubleSided": true,
      "emissiveFactor": [
        0,
        0,
        0
      ],
      "name": "asian_umbrella3",
      "pbrMetallicRoughness": {
        "baseColorFactor": [
          0.5,
          0.5,
          0.5,
          1
        ],
        "metallicFactor": 0,
        "roughnessFactor": 1
      }
    },
    {
      "doubleSided": true,
      "emissiveFactor": [
        0,
        0,
        0
      ],
      "name": "PM3D_Cylinder3D1_2",
      "pbrMetallicRoughness": {
        "baseColorFactor": [
          0.5,
          0.5,
          0.5,
          1
        ],
        "metallicFactor": 0,
        "roughnessFactor": 1
      }
    },
    {
      "doubleSided": true,
      "emissiveFactor": [
        0,
        0,
        0
      ],
      "name": "PM3D_Cylinder3D1_6",
      "pbrMetallicRoughness": {
        "baseColorFactor": [
          0.5,
          0.5,
          0.5,
          1
        ],
        "metallicFactor": 0,
        "roughnessFactor": 1
      }
    },
    {
      "doubleSided": true,
      "emissiveFactor": [
        0,
        0,
        0
      ],
      "name": "PM3D_Cylinder3D1_7",
      "pbrMetallicRoughness": {
        "baseColorFactor": [
          0.5,
          0.5,
          0.5,
          1
        ],
        "metallicFactor": 0,
        "roughnessFactor": 1
      }
    },
    {
      "doubleSided": true,
      "emissiveFactor": [
        0,
        0,
        0
      ],
      "name": "PM3D_Cylinder3D1",
      "pbrMetallicRoughness": {
        "baseColorFactor": [
          0.5,
          0.5,
          0.5,
          1
        ],
        "metallicFactor": 0,
        "roughnessFactor": 1
      }
    }
  ],
  "meshes": [
    {
      "name": "asian_umbrella_asian_umbrella_0",
      "primitives": [
        {
          "attributes": {
            "NORMAL": 1,
            "POSITION": 0,
            "TEXCOORD_0": 2
          },
          "indices": 3,
          "material": 0,
          "mode": 4
        }
      ]
    },
    {
      "name": "asian_umbrella1_asian_umbrella1_0",
      "primitives": [
        {
          "attributes": {
            "NORMAL": 5,
            "POSITION": 4,
            "TEXCOORD_0": 6
          },
          "indices": 7,
          "material": 1,
          "mode": 4
        }
      ]
    },
    {
      "name": "asian_umbrella2_asian_umbrella2_0",
      "primitives": [
        {
          "attributes": {
            "NORMAL": 9,
            "POSITION": 8,
            "TEXCOORD_0": 10
          },
          "indices": 11,
          "material": 2,
          "mode": 4
        }
      ]
    },
    {
      "name": "asian_umbrella3_asian_umbrella3_0",
      "primitives": [
        {
          "attributes": {
            "NORMAL": 13,
            "POSITION": 12,
            "TEXCOORD_0": 14
          },
          "indices": 15,
          "material": 3,
          "mode": 4
        }
      ]
    },
    {
      "name": "PM3D_Cylinder3D1_2_PM3D_Cylinder3D1_2_0",
      "primitives": [
        {
          "attributes": {
            "NORMAL": 17,
            "POSITION": 16,
            "TEXCOORD_0": 18
          },
          "indices": 19,
          "material": 4,
          "mode": 4
        }
      ]
    },
    {
      "name": "PM3D_Cylinder3D1_6_PM3D_Cylinder3D1_6_0",
      "primitives": [
        {
          "attributes": {
            "NORMAL": 21,
            "POSITION": 20,
            "TEXCOORD_0": 22
          },
          "indices": 23,
          "material": 5,
          "mode": 4
        }
      ]
    },
    {
      "name": "PM3D_Cylinder3D1_7_PM3D_Cylinder3D1_7_0",
      "primitives": [
        {
          "attributes": {
            "NORMAL": 25,
            "POSITION": 24,
            "TEXCOORD_0": 26
          },
          "indices": 27,
          "material": 6,
          "mode": 4
        }
      ]
    },
    {
      "name": "PM3D_Cylinder3D1_PM3D_Cylinder3D1_0",
      "primitives": [
        {
          "attributes": {
            "NORMAL": 29,
            "POSITION": 28
          },
          "indices": 30,
          "material": 7,
          "mode": 4
        }
      ]
    }
  ],
  "nodes": [
    {
      "children": [
        1
      ],
      "name": "RootNode (gltf orientation matrix)",
      "rotation": [
        -0.70710678118654746,
        -0,
        -0,
        0.70710678118654757
      ]
    },
    {
      "children": [
        2
      ],
      "name": "RootNode (model correction matrix)"
    },
    {
      "children": [
        3
      ],
      "matrix": [
        1,
        0,
        0,
        0,
        0,
        0,
        1,
        0,
        0,
        -1,
        0,
        0,
        0,
        0,
        0,
        1
      ],
      "name": "8197ca3f057f4b9db12f61266a480689.fbx"
    },
    {
      "children": [
        4,
        6,
        8,
        10,
        12,
        14,
        16,
        18
      ],
      "name": "RootNode"
    },
    {
      "children": [
        5
      ],
      "name": "asian_umbrella"
    },
    {
      "mesh": 0,
      "name": "asian_umbrella_asian_umbrella_0"
    },
    {
      "children": [
        7
      ],
      "name": "asian_umbrella1"
    },
    {
      "mesh": 1,
      "name": "asian_umbrella1_asian_umbrella1_0"
    },
    {
      "children": [
        9
      ],
      "name": "asian_umbrella2"
    },
    {
      "mesh": 2,
      "name": "asian_umbrella2_asian_umbrella2_0"
    },
    {
      "children": [
        11
      ],
      "name": "asian_umbrella3"
    },
    {
      "mesh": 3,
      "name": "asian_umbrella3_asian_umbrella3_0"
    },
    {
      "children": [
        13
      ],
      "name": "PM3D_Cylinder3D1_2"
    },
    {
      "mesh": 4,
      "name": "PM3D_Cylinder3D1_2_PM3D_Cylinder3D1_2_0"
    },
    {
      "children": [
        15
      ],
      "name": "PM3D_Cylinder3D1_6"
    },
    {
      "mesh": 5,
      "name": "PM3D_Cylinder3D1_6_PM3D_Cylinder3D1_6_0"
    },
    {
      "children": [
        17
      ],
      "name": "PM3D_Cylinder3D1_7"
    },
    {
      "mesh": 6,
      "name": "PM3D_Cylinder3D1_7_PM3D_Cylinder3D1_7_0"
    },
    {
      "children": [
        19
      ],
      "name": "PM3D_Cylinder3D1"
    },
    {
      "mesh": 7,
      "name": "PM3D_Cylinder3D1_PM3D_Cylinder3D1_0"
    }
  ],
  "scene": 0,
  "scenes": [
    {
      "name": "OSG_Scene",
      "nodes": [
        0
      ]
    }
  ]
}

