{
  "accessors": [
    {
      "bufferView": 2,
      "componentType": 5126,
      "count": 130,
      "max": [
        1.0530344247817993,
        1.0530343055725098,
        0.11824950575828552
      ],
      "min": [
        -1.0530341863632202,
        -1.0530343055725098,
        -0.019433535635471344
      ],
      "type": "VEC3"
    },
    {
      "bufferView": 2,
      "byteOffset": 1560,
      "componentType": 5126,
      "count": 130,
      "max": [
        0.98823696374893188,
        0.98823237419128418,
        1
      ],
      "min": [
        -0.98823696374893188,
        -0.98823696374893188,
        -1
      ],
      "type": "VEC3"
    },
    {
      "bufferView": 1,
      "componentType": 5126,
      "count": 130,
      "max": [
        0.99214255809783936,
        0.98051130771636963
      ],
      "min": [
        0.014771576970815659,
        0.0070872590877115726
      ],
      "type": "VEC2"
    },
    {
      "bufferView": 0,
      "componentType": 5125,
      "count": 672,
      "max": [
        129
      ],
      "min": [
        0
      ],
      "type": "SCALAR"
    },
    {
      "bufferView": 2,
      "byteOffset": 3120,
      "componentType": 5126,
      "count": 236,
      "max": [
        0.55321264266967773,
        0.84681379795074463,
        0.2326904833316803
      ],
      "min": [
        -0.86938357353210449,
        -0.78234696388244629,
        0.030636109411716461
      ],
      "type": "VEC3"
    },
    {
      "bufferView": 2,
      "byteOffset": 5952,
      "componentType": 5126,
      "count": 236,
      "max": [
        0.9928581714630127,
        0.98073881864547729,
        0.99985039234161377
      ],
      "min": [
        -0.97512525320053101,
        -0.99927127361297607,
        -0.34630250930786133
      ],
      "type": "VEC3"
    },
    {
      "bufferView": 3,
      "componentType": 5126,
      "count": 236,
      "max": [
        0.99450176954269409,
        0.97559577226638794,
        0.98537766933441162,
        1
      ],
      "min": [
        -0.30231174826622009,
        -0.61201667785644531,
        -0.92940020561218262,
        1
      ],
      "type": "VEC4"
    },
    {
      "bufferView": 1,
      "byteOffset": 1040,
      "componentType": 5126,
      "count": 236,
      "max": [
        0.96345663070678711,
        0.97846877574920654
      ],
      "min": [
        0.031140685081481934,
        0.01976621150970459
      ],
      "type": "VEC2"
    },
    {
      "bufferView": 1,
      "byteOffset": 2928,
      "componentType": 5126,
      "count": 236,
      "max": [
        0.96345663070678711,
        0.97846877574920654
      ],
      "min": [
        0.031140685081481934,
        0.01976621150970459
      ],
      "type": "VEC2"
    },
    {
      "bufferView": 1,
      "byteOffset": 4816,
      "componentType": 5126,
      "count": 236,
      "max": [
        0.96345663070678711,
        0.97846877574920654
      ],
      "min": [
        0.031140685081481934,
        0.01976621150970459
      ],
      "type": "VEC2"
    },
    {
      "bufferView": 0,
      "byteOffset": 2688,
      "componentType": 5125,
      "count": 1026,
      "max": [
        235
      ],
      "min": [
        0
      ],
      "type": "SCALAR"
    }
  ],
  "asset": {
    "extras": {
      "author": "Agustín Hönnun (https://sketchfab.com/Agustin_Honnun)",
      "license": "CC-BY-4.0 (http://creativecommons.org/licenses/by/4.0/)",
      "source": "https://sketchfab.com/3d-models/pizza-slice-prop-free-agustin-honnun-5b889e682437418a85e9237dc6d66d82",
      "title": "Pizza Slice Prop [FREE] | Agustin Honnun"
    },
    "generator": "Sketchfab-8.9.0",
    "version": "2.0"
  },
  "bufferViews": [
    {
      "buffer": 0,
      "byteLength": 6792,
      "byteOffset": 0,
      "name": "floatBufferViews",
      "target": 34963
    },
    {
      "buffer": 0,
      "byteLength": 6704,
      "byteOffset": 6792,
      "byteStride": 8,
      "name": "floatBufferViews",
      "target": 34962
    },
    {
      "buffer": 0,
      "byteLength": 8784,
      "byteOffset": 13496,
      "byteStride": 12,
      "name": "floatBufferViews",
      "target": 34962
    },
    {
      "buffer": 0,
      "byteLength": 3776,
      "byteOffset": 22280,
      "byteStride": 16,
      "name": "floatBufferViews",
      "target": 34962
    }
  ],
  "buffers": [
    {
      "byteLength": 26056,
      "uri": "scene.bin"
    }
  ],
  "images": [
    {
      "uri": "textures/Plato_baseColor.png"
    },
    {
      "uri": "textures/Plato_metallicRoughness.png"
    },
    {
      "uri": "textures/Pizza_baseColor.png"
    },
    {
      "uri": "textures/Pizza_metallicRoughness.png"
    },
    {
      "uri": "textures/Pizza_normal.png"
    }
  ],
  "materials": [
    {
      "doubleSided": true,
      "emissiveFactor": [
        0,
        0,
        0
      ],
      "name": "Plato",
      "pbrMetallicRoughness": {
        "baseColorFactor": [
          1,
          1,
          1,
          1
        ],
        "baseColorTexture": {
          "index": 0,
          "texCoord": 0
        },
        "metallicFactor": 0,
        "metallicRoughnessTexture": {
          "index": 1,
          "texCoord": 0
        },
        "roughnessFactor": 1
      }
    },
    {
      "doubleSided": true,
      "emissiveFactor": [
        0,
        0,
        0
      ],
      "name": "Pizza",
      "normalTexture": {
        "index": 4,
        "scale": 0.4529344512195122,
        "texCoord": 0
      },
      "pbrMetallicRoughness": {
        "baseColorFactor": [
          1,
          1,
          1,
          1
        ],
        "baseColorTexture": {
          "index": 2,
          "texCoord": 0
        },
        "metallicFactor": 0,
        "metallicRoughnessTexture": {
          "index": 3,
          "texCoord": 0
        },
        "roughnessFactor": 1
      }
    }
  ],
  "meshes": [
    {
      "name": "Plato_Plato_0",
      "primitives": [
        {
          "attributes": {
            "NORMAL": 1,
            "POSITION": 0,
            "TEXCOORD_0": 2
          },
          "indices": 3,
          "material": 0,
          "mode": 4
        }
      ]
    },
    {
      "name": "Plane_Pizza_0",
      "primitives": [
        {
          "attributes": {
            "NORMAL": 5,
            "POSITION": 4,
            "TANGENT": 6,
            "TEXCOORD_0": 7,
            "TEXCOORD_1": 8,
            "TEXCOORD_2": 9
          },
          "indices": 10,
          "material": 1,
          "mode": 4
        }
      ]
    }
  ],
  "nodes": [
    {
      "children": [
        1
      ],
      "name": "RootNode (gltf orientation matrix)",
      "rotation": [
        -0.70710678118654746,
        -0,
        -0,
        0.70710678118654757
      ]
    },
    {
      "children": [
        2
      ],
      "name": "RootNode (model correction matrix)"
    },
    {
      "children": [
        3
      ],
      "matrix": [
        1,
        0,
        0,
        0,
        0,
        0,
        1,
        0,
        0,
        -1,
        0,
        0,
        0,
        0,
        0,
        1
      ],
      "name": "1e177ec64ffe47d99ec1092b5fce71fd.fbx"
    },
    {
      "children": [
        4,
        6
      ],
      "name": "RootNode"
    },
    {
      "children": [
        5
      ],
      "matrix": [
        100,
        0,
        0,
        0,
        0,
        -1.6292067939183141e-05,
        -99.999999999998678,
        0,
        0,
        99.999999999998678,
        -1.6292067939183141e-05,
        0,
        0,
        0,
        0,
        1
      ],
      "name": "Plato"
    },
    {
      "mesh": 0,
      "name": "Plato_Plato_0"
    },
    {
      "children": [
        7
      ],
      "matrix": [
        100,
        0,
        0,
        0,
        0,
        -1.6292067939183141e-05,
        -99.999999999998678,
        0,
        0,
        99.999999999998678,
        -1.6292067939183141e-05,
        0,
        0,
        0,
        0,
        1
      ],
      "name": "Plane"
    },
    {
      "mesh": 1,
      "name": "Plane_Pizza_0"
    }
  ],
  "samplers": [
    {
      "magFilter": 9729,
      "minFilter": 9987,
      "wrapS": 10497,
      "wrapT": 10497
    }
  ],
  "scene": 0,
  "scenes": [
    {
      "name": "OSG_Scene",
      "nodes": [
        0
      ]
    }
  ],
  "textures": [
    {
      "sampler": 0,
      "source": 0
    },
    {
      "sampler": 0,
      "source": 1
    },
    {
      "sampler": 0,
      "source": 2
    },
    {
      "sampler": 0,
      "source": 3
    },
    {
      "sampler": 0,
      "source": 4
    }
  ]
}

