{
  "accessors": [
    {
      "bufferView": 2,
      "componentType": 5126,
      "count": 798,
      "max": [
        2.700700044631958,
        2.6035099029541016,
        0.064920000731945038
      ],
      "min": [
        -2.699350118637085,
        -2.6947000026702881,
        -0.090449996292591095
      ],
      "type": "VEC3"
    },
    {
      "bufferView": 2,
      "byteOffset": 9576,
      "componentType": 5126,
      "count": 798,
      "max": [
        0.37748971581459045,
        0.37788510322570801,
        1
      ],
      "min": [
        -0.37748971581459045,
        -0.37788510322570801,
        -1
      ],
      "type": "VEC3"
    },
    {
      "bufferView": 1,
      "componentType": 5126,
      "count": 798,
      "max": [
        0.48816999793052673,
        0.72216999530792236
      ],
      "min": [
        0,
        0
      ],
      "type": "VEC2"
    },
    {
      "bufferView": 0,
      "componentType": 5125,
      "count": 3264,
      "max": [
        797
      ],
      "min": [
        0
      ],
      "type": "SCALAR"
    },
    {
      "bufferView": 2,
      "byteOffset": 19152,
      "componentType": 5126,
      "count": 755,
      "max": [
        3.0306699275970459,
        3.0313301086425781,
        3.0565800666809082
      ],
      "min": [
        -3.0306599140167236,
        -3.0313301086425781,
        -11.048029899597168
      ],
      "type": "VEC3"
    },
    {
      "bufferView": 2,
      "byteOffset": 28212,
      "componentType": 5126,
      "count": 755,
      "max": [
        0.99978071451187134,
        1,
        0.63136905431747437
      ],
      "min": [
        -0.99978071451187134,
        -1,
        0
      ],
      "type": "VEC3"
    },
    {
      "bufferView": 1,
      "byteOffset": 6384,
      "componentType": 5126,
      "count": 755,
      "max": [
        0.99256002902984619,
        0.99822002649307251
      ],
      "min": [
        0.0059600002132356167,
        0.019570000469684601
      ],
      "type": "VEC2"
    },
    {
      "bufferView": 0,
      "byteOffset": 13056,
      "componentType": 5125,
      "count": 3600,
      "max": [
        754
      ],
      "min": [
        0
      ],
      "type": "SCALAR"
    },
    {
      "bufferView": 2,
      "byteOffset": 37272,
      "componentType": 5126,
      "count": 1301,
      "max": [
        2.5968101024627686,
        2.6019399166107178,
        0.49103999137878418
      ],
      "min": [
        -2.5968101024627686,
        -2.6019399166107178,
        -0.78369998931884766
      ],
      "type": "VEC3"
    },
    {
      "bufferView": 2,
      "byteOffset": 52884,
      "componentType": 5126,
      "count": 1301,
      "max": [
        0.99802738428115845,
        1,
        1
      ],
      "min": [
        -0.99802738428115845,
        -1,
        -0.068032748997211456
      ],
      "type": "VEC3"
    },
    {
      "bufferView": 0,
      "byteOffset": 27456,
      "componentType": 5125,
      "count": 7650,
      "max": [
        1300
      ],
      "min": [
        0
      ],
      "type": "SCALAR"
    },
    {
      "bufferView": 2,
      "byteOffset": 68496,
      "componentType": 5126,
      "count": 148,
      "max": [
        0.66765999794006348,
        0.41955998539924622,
        0.01583000086247921
      ],
      "min": [
        -0.66765999794006348,
        -0.39893001317977905,
        -0.015790000557899475
      ],
      "type": "VEC3"
    },
    {
      "bufferView": 2,
      "byteOffset": 70272,
      "componentType": 5126,
      "count": 148,
      "max": [
        0.8849976658821106,
        0.87352311611175537,
        0.94256055355072021
      ],
      "min": [
        -0.8849976658821106,
        -0.83051329851150513,
        -0.98615026473999023
      ],
      "type": "VEC3"
    },
    {
      "bufferView": 1,
      "byteOffset": 12424,
      "componentType": 5126,
      "count": 148,
      "max": [
        0,
        0
      ],
      "min": [
        0,
        0
      ],
      "type": "VEC2"
    },
    {
      "bufferView": 0,
      "byteOffset": 58056,
      "componentType": 5125,
      "count": 888,
      "max": [
        147
      ],
      "min": [
        0
      ],
      "type": "SCALAR"
    },
    {
      "bufferView": 2,
      "byteOffset": 72048,
      "componentType": 5126,
      "count": 684,
      "max": [
        0.7791600227355957,
        1.2316800355911255,
        0.09844999760389328
      ],
      "min": [
        -0.79684001207351685,
        -1.1233400106430054,
        -0.26596000790596008
      ],
      "type": "VEC3"
    },
    {
      "bufferView": 2,
      "byteOffset": 80256,
      "componentType": 5126,
      "count": 684,
      "max": [
        0.99736034870147705,
        0.99269324541091919,
        0.81700170040130615
      ],
      "min": [
        -0.99736320972442627,
        -0.99857908487319946,
        -0.78440850973129272
      ],
      "type": "VEC3"
    },
    {
      "bufferView": 1,
      "byteOffset": 13608,
      "componentType": 5126,
      "count": 684,
      "max": [
        1,
        1
      ],
      "min": [
        0,
        0
      ],
      "type": "VEC2"
    },
    {
      "bufferView": 0,
      "byteOffset": 61608,
      "componentType": 5125,
      "count": 2223,
      "max": [
        683
      ],
      "min": [
        0
      ],
      "type": "SCALAR"
    },
    {
      "bufferView": 2,
      "byteOffset": 88464,
      "componentType": 5126,
      "count": 740,
      "max": [
        2.8253200054168701,
        2.7720499038696289,
        0.27902999520301819
      ],
      "min": [
        -2.8253200054168701,
        -2.7720201015472412,
        -0.41394001245498657
      ],
      "type": "VEC3"
    },
    {
      "bufferView": 2,
      "byteOffset": 97344,
      "componentType": 5126,
      "count": 740,
      "max": [
        0.98677200078964233,
        0.98725885152816772,
        0.96934503316879272
      ],
      "min": [
        -0.98677200078964233,
        -0.98725885152816772,
        -0.18302343785762787
      ],
      "type": "VEC3"
    },
    {
      "bufferView": 1,
      "byteOffset": 19080,
      "componentType": 5126,
      "count": 740,
      "max": [
        0,
        0
      ],
      "min": [
        0,
        0
      ],
      "type": "VEC2"
    },
    {
      "bufferView": 0,
      "byteOffset": 70500,
      "componentType": 5125,
      "count": 3552,
      "max": [
        739
      ],
      "min": [
        0
      ],
      "type": "SCALAR"
    },
    {
      "bufferView": 2,
      "byteOffset": 106224,
      "componentType": 5126,
      "count": 52,
      "max": [
        1.0536899566650391,
        1.3519400358200073,
        0
      ],
      "min": [
        -1.0370700359344482,
        -1.3766200542449951,
        0
      ],
      "type": "VEC3"
    },
    {
      "bufferView": 2,
      "byteOffset": 106848,
      "componentType": 5126,
      "count": 52,
      "max": [
        0,
        0,
        1
      ],
      "min": [
        0,
        0,
        -1
      ],
      "type": "VEC3"
    },
    {
      "bufferView": 0,
      "byteOffset": 84708,
      "componentType": 5125,
      "count": 144,
      "max": [
        51
      ],
      "min": [
        0
      ],
      "type": "SCALAR"
    },
    {
      "bufferView": 2,
      "byteOffset": 107472,
      "componentType": 5126,
      "count": 52,
      "max": [
        1.1722099781036377,
        1.5040099620819092,
        9.9999997473787516e-06
      ],
      "min": [
        -1.1537200212478638,
        -1.5314699411392212,
        9.9999997473787516e-06
      ],
      "type": "VEC3"
    },
    {
      "bufferView": 2,
      "byteOffset": 108096,
      "componentType": 5126,
      "count": 52,
      "max": [
        0,
        0,
        1
      ],
      "min": [
        0,
        0,
        -1
      ],
      "type": "VEC3"
    },
    {
      "bufferView": 0,
      "byteOffset": 85284,
      "componentType": 5125,
      "count": 144,
      "max": [
        51
      ],
      "min": [
        0
      ],
      "type": "SCALAR"
    },
    {
      "bufferView": 2,
      "byteOffset": 108720,
      "componentType": 5126,
      "count": 96,
      "max": [
        1.4281500577926636,
        2.1552600860595703,
        0.012930000200867653
      ],
      "min": [
        -1.4281500577926636,
        -2.2139298915863037,
        -0.012910000048577785
      ],
      "type": "VEC3"
    },
    {
      "bufferView": 2,
      "byteOffset": 109872,
      "componentType": 5126,
      "count": 96,
      "max": [
        0.33666139841079712,
        0.28068578243255615,
        0.96453368663787842
      ],
      "min": [
        -0.33666139841079712,
        -0.28779652714729309,
        0.93890178203582764
      ],
      "type": "VEC3"
    },
    {
      "bufferView": 1,
      "byteOffset": 25000,
      "componentType": 5126,
      "count": 96,
      "max": [
        0,
        0
      ],
      "min": [
        0,
        0
      ],
      "type": "VEC2"
    },
    {
      "bufferView": 0,
      "byteOffset": 85860,
      "componentType": 5125,
      "count": 288,
      "max": [
        95
      ],
      "min": [
        0
      ],
      "type": "SCALAR"
    },
    {
      "bufferView": 2,
      "byteOffset": 111024,
      "componentType": 5126,
      "count": 906,
      "max": [
        3.0306699275970459,
        3.0313301086425781,
        0.23883000016212463
      ],
      "min": [
        -3.0306599140167236,
        -3.0313301086425781,
        -0.17978000640869141
      ],
      "type": "VEC3"
    },
    {
      "bufferView": 2,
      "byteOffset": 121896,
      "componentType": 5126,
      "count": 906,
      "max": [
        0.99978071451187134,
        1,
        0
      ],
      "min": [
        -0.99978071451187134,
        -1,
        -0.9977756142616272
      ],
      "type": "VEC3"
    },
    {
      "bufferView": 1,
      "byteOffset": 25768,
      "componentType": 5126,
      "count": 906,
      "max": [
        0.99219000339508057,
        0.019570000469684601
      ],
      "min": [
        0.0059600002132356167,
        0.019570000469684601
      ],
      "type": "VEC2"
    },
    {
      "bufferView": 0,
      "byteOffset": 87012,
      "componentType": 5125,
      "count": 4500,
      "max": [
        905
      ],
      "min": [
        0
      ],
      "type": "SCALAR"
    },
    {
      "bufferView": 2,
      "byteOffset": 132768,
      "componentType": 5126,
      "count": 100,
      "max": [
        0.56795001029968262,
        0.97820001840591431,
        -0
      ],
      "min": [
        -0.56235998868942261,
        -1.1134200096130371,
        -0
      ],
      "type": "VEC3"
    },
    {
      "bufferView": 2,
      "byteOffset": 133968,
      "componentType": 5126,
      "count": 100,
      "max": [
        0,
        0,
        1
      ],
      "min": [
        0,
        0,
        1
      ],
      "type": "VEC3"
    },
    {
      "bufferView": 1,
      "byteOffset": 33016,
      "componentType": 5126,
      "count": 100,
      "max": [
        0,
        0
      ],
      "min": [
        0,
        0
      ],
      "type": "VEC2"
    },
    {
      "bufferView": 0,
      "byteOffset": 105012,
      "componentType": 5125,
      "count": 288,
      "max": [
        99
      ],
      "min": [
        0
      ],
      "type": "SCALAR"
    }
  ],
  "asset": {
    "extras": {
      "author": "palladiumenergydrink (https://sketchfab.com/palladiumenergydrink)",
      "license": "CC-BY-4.0 (http://creativecommons.org/licenses/by/4.0/)",
      "source": "https://sketchfab.com/3d-models/palladium-energy-drink-6cfa04ecb6694c138bdcb5bf105202fc",
      "title": "Palladium Energy Drink"
    },
    "generator": "Sketchfab-7.72.0",
    "version": "2.0"
  },
  "bufferViews": [
    {
      "buffer": 0,
      "byteLength": 106164,
      "byteOffset": 0,
      "name": "floatBufferViews",
      "target": 34963
    },
    {
      "buffer": 0,
      "byteLength": 33816,
      "byteOffset": 106164,
      "byteStride": 8,
      "name": "floatBufferViews",
      "target": 34962
    },
    {
      "buffer": 0,
      "byteLength": 135168,
      "byteOffset": 139980,
      "byteStride": 12,
      "name": "floatBufferViews",
      "target": 34962
    }
  ],
  "buffers": [
    {
      "byteLength": 275148,
      "uri": "scene.bin"
    }
  ],
  "images": [
    {
      "uri": "textures/Material.001_baseColor.jpeg"
    }
  ],
  "materials": [
    {
      "doubleSided": true,
      "emissiveFactor": [
        0.02,
        0.02,
        0.02
      ],
      "name": "Aluminium",
      "pbrMetallicRoughness": {
        "baseColorFactor": [
          1,
          1,
          1,
          1
        ],
        "metallicFactor": 1,
        "roughnessFactor": 0.30000001192092896
      }
    },
    {
      "doubleSided": true,
      "name": "Material.001",
      "pbrMetallicRoughness": {
        "baseColorFactor": [
          1,
          1,
          1,
          1
        ],
        "baseColorTexture": {
          "index": 0,
          "texCoord": 0
        },
        "metallicFactor": 0.16500000000000001,
        "roughnessFactor": 0.10000000149011612
      }
    }
  ],
  "meshes": [
    {
      "name": "Circle.002_0",
      "primitives": [
        {
          "attributes": {
            "NORMAL": 1,
            "POSITION": 0,
            "TEXCOORD_0": 2
          },
          "indices": 3,
          "material": 0,
          "mode": 4
        }
      ]
    },
    {
      "name": "Sphere_0",
      "primitives": [
        {
          "attributes": {
            "NORMAL": 5,
            "POSITION": 4,
            "TEXCOORD_0": 6
          },
          "indices": 7,
          "material": 1,
          "mode": 4
        }
      ]
    },
    {
      "name": "Sphere.001_0",
      "primitives": [
        {
          "attributes": {
            "NORMAL": 9,
            "POSITION": 8
          },
          "indices": 10,
          "material": 0,
          "mode": 4
        }
      ]
    },
    {
      "name": "Circle.000_0",
      "primitives": [
        {
          "attributes": {
            "NORMAL": 12,
            "POSITION": 11,
            "TEXCOORD_0": 13
          },
          "indices": 14,
          "material": 0,
          "mode": 4
        }
      ]
    },
    {
      "name": "Circle.001_0",
      "primitives": [
        {
          "attributes": {
            "NORMAL": 16,
            "POSITION": 15,
            "TEXCOORD_0": 17
          },
          "indices": 18,
          "material": 0,
          "mode": 4
        }
      ]
    },
    {
      "name": "Circle.003_0",
      "primitives": [
        {
          "attributes": {
            "NORMAL": 20,
            "POSITION": 19,
            "TEXCOORD_0": 21
          },
          "indices": 22,
          "material": 0,
          "mode": 4
        }
      ]
    },
    {
      "name": "Circle_0",
      "primitives": [
        {
          "attributes": {
            "NORMAL": 24,
            "POSITION": 23
          },
          "indices": 25,
          "material": 0,
          "mode": 4
        }
      ]
    },
    {
      "name": "Circle.004_0",
      "primitives": [
        {
          "attributes": {
            "NORMAL": 27,
            "POSITION": 26
          },
          "indices": 28,
          "material": 0,
          "mode": 4
        }
      ]
    },
    {
      "name": "Circle.005_0",
      "primitives": [
        {
          "attributes": {
            "NORMAL": 30,
            "POSITION": 29,
            "TEXCOORD_0": 31
          },
          "indices": 32,
          "material": 0,
          "mode": 4
        }
      ]
    },
    {
      "name": "Sphere.002_0",
      "primitives": [
        {
          "attributes": {
            "NORMAL": 34,
            "POSITION": 33,
            "TEXCOORD_0": 35
          },
          "indices": 36,
          "material": 0,
          "mode": 4
        }
      ]
    },
    {
      "name": "Circle.006_0",
      "primitives": [
        {
          "attributes": {
            "NORMAL": 38,
            "POSITION": 37,
            "TEXCOORD_0": 39
          },
          "indices": 40,
          "material": 0,
          "mode": 4
        }
      ]
    }
  ],
  "nodes": [
    {
      "children": [
        1
      ],
      "name": "RootNode (gltf orientation matrix)",
      "rotation": [
        -0.70710678118654746,
        -0,
        -0,
        0.70710678118654757
      ]
    },
    {
      "children": [
        2
      ],
      "name": "RootNode (model correction matrix)"
    },
    {
      "children": [
        3,
        5,
        7,
        9,
        11,
        13,
        15,
        17,
        19,
        21,
        23
      ],
      "name": "Root"
    },
    {
      "children": [
        4
      ],
      "matrix": [
        1,
        0,
        0,
        0,
        0,
        1,
        0,
        0,
        0,
        0,
        1,
        0,
        0.084890000000000021,
        0.35099000000000002,
        14.386500000000002,
        1
      ],
      "name": "Circle.002"
    },
    {
      "mesh": 0,
      "name": "Circle.002_0"
    },
    {
      "children": [
        6
      ],
      "matrix": [
        0.35736000000000007,
        -0.93397000000000008,
        0,
        0,
        0.93397000000000008,
        0.35736000000000007,
        0,
        0,
        0,
        0,
        1,
        0,
        0.081920000000000021,
        0.28217000000000003,
        11.7058,
        1
      ],
      "name": "Sphere"
    },
    {
      "mesh": 1,
      "name": "Sphere_0"
    },
    {
      "children": [
        8
      ],
      "matrix": [
        1,
        0,
        0,
        0,
        0,
        1,
        0,
        0,
        0,
        0,
        1,
        0,
        0.081910000000000011,
        0.28217000000000003,
        1.0586899999999999,
        1
      ],
      "name": "Sphere.001"
    },
    {
      "mesh": 2,
      "name": "Sphere.001_0"
    },
    {
      "children": [
        10
      ],
      "matrix": [
        1,
        0,
        0,
        0,
        0,
        1,
        0,
        0,
        0,
        0,
        1,
        0,
        0.085560000000000025,
        -0.65272000000000019,
        14.43601,
        1
      ],
      "name": "Circle.000"
    },
    {
      "mesh": 3,
      "name": "Circle.000_0"
    },
    {
      "children": [
        12
      ],
      "matrix": [
        1,
        0,
        0,
        0,
        0,
        1,
        0,
        0,
        0,
        0,
        1,
        0,
        0.085560000000000025,
        1.2042599999999999,
        14.440480000000001,
        1
      ],
      "name": "Circle.001"
    },
    {
      "mesh": 4,
      "name": "Circle.001_0"
    },
    {
      "children": [
        14
      ],
      "matrix": [
        1,
        0,
        0,
        0,
        0,
        1,
        0,
        0,
        0,
        0,
        1,
        0,
        0.085560000000000025,
        0.3053800000000001,
        14.709989999999999,
        1
      ],
      "name": "Circle.003"
    },
    {
      "mesh": 5,
      "name": "Circle.003_0"
    },
    {
      "children": [
        16
      ],
      "matrix": [
        1,
        0,
        0,
        0,
        0,
        1,
        0,
        0,
        0,
        0,
        1,
        0,
        0.087270000000000028,
        -0.16909000000000005,
        14.434949999999999,
        1
      ],
      "name": "Circle"
    },
    {
      "mesh": 6,
      "name": "Circle_0"
    },
    {
      "children": [
        18
      ],
      "matrix": [
        1,
        0,
        0,
        0,
        0,
        1,
        0,
        0,
        0,
        0,
        1,
        0,
        0.087270000000000028,
        -0.13434000000000001,
        14.430359999999999,
        1
      ],
      "name": "Circle.004"
    },
    {
      "mesh": 7,
      "name": "Circle.004_0"
    },
    {
      "children": [
        20
      ],
      "matrix": [
        1,
        0,
        0,
        0,
        0,
        1,
        0,
        0,
        0,
        0,
        1,
        0,
        0.085560000000000025,
        0.39418000000000009,
        14.43848,
        1
      ],
      "name": "Circle.005"
    },
    {
      "mesh": 8,
      "name": "Circle.005_0"
    },
    {
      "children": [
        22
      ],
      "matrix": [
        1,
        0,
        0,
        0,
        0,
        1,
        0,
        0,
        0,
        0,
        1,
        0,
        0.081920000000000021,
        0.28217000000000003,
        0.41893000000000002,
        1
      ],
      "name": "Sphere.002"
    },
    {
      "mesh": 9,
      "name": "Sphere.002_0"
    },
    {
      "children": [
        24
      ],
      "matrix": [
        1,
        0,
        0,
        0,
        0,
        1,
        0,
        0,
        0,
        0,
        1,
        0,
        0.091210000000000027,
        1.2815999999999999,
        14.37082,
        1
      ],
      "name": "Circle.006"
    },
    {
      "mesh": 10,
      "name": "Circle.006_0"
    }
  ],
  "samplers": [
    {
      "magFilter": 9729,
      "minFilter": 9987,
      "wrapS": 10497,
      "wrapT": 10497
    }
  ],
  "scene": 0,
  "scenes": [
    {
      "name": "OSG_Scene",
      "nodes": [
        0
      ]
    }
  ],
  "textures": [
    {
      "sampler": 0,
      "source": 0
    }
  ]
}

